<svg xmlns="http://www.w3.org/2000/svg" viewBox="0 0 64 64" aria-label="Coffee Logo Icon" role="img">
  <g fill="#ffffff">
    <!-- Steam -->
    <path d="M22 10c0 4-3 6-3 10 0 2 1 3 3 3s3-1 3-3c0-4-3-6-3-10z"></path>
    <path d="M32 8c0 4-3 6-3 10 0 2 1 3 3 3s3-1 3-3c0-4-3-6-3-10z"></path>
    <path d="M42 10c0 4-3 6-3 10 0 2 1 3 3 3s3-1 3-3c0-4-3-6-3-10z"></path>
    <!-- Cup -->
    <path d="M10 28c0 10 8 18 18 18h6c10 0 18-8 18-18v-3H10v3zM52 26h3a7 7 0 0 1 0 14h-4.2a20.5 20.5 0 0 0 1.2-8v-6z"></path>
    <!-- Saucer -->
    <rect x="12" y="50" width="40" height="4" rx="2" ry="2"></rect>
  </g>
</svg>
